<?xml version="1.0" standalone="no"?>
<!DOCTYPE svg PUBLIC "-//W3C//DTD SVG 20010904//EN"
 "http://www.w3.org/TR/2001/REC-SVG-20010904/DTD/svg10.dtd">
<svg version="1.0" xmlns="http://www.w3.org/2000/svg"
 width="1000.000000pt" height="1000.000000pt" viewBox="0 0 1000.000000 1000.000000"
 preserveAspectRatio="xMidYMid meet">
<metadata>
Created by potrace 1.11, written by Peter Selinger 2001-2013
</metadata>
<g transform="translate(0.000000,1000.000000) scale(0.100000,-0.100000)"
fill="#000000" stroke="none">
<path d="M4569 9896 c-2 -2 -36 -6 -74 -9 -96 -8 -334 -61 -390 -87 -11 -5
-50 -20 -87 -34 -141 -52 -347 -168 -484 -272 -152 -115 -324 -285 -448 -439
-69 -87 -250 -352 -269 -395 -4 -8 -17 -31 -28 -50 -39 -64 -157 -304 -207
-421 -137 -320 -270 -749 -347 -1119 -12 -59 -48 -602 -60 -900 -5 -111 -5
-684 -1 -765 5 -104 18 -267 22 -289 2 -10 6 -44 10 -75 3 -31 10 -74 15 -96
15 -60 22 -649 22 -1830 1 -1285 1 -1287 -31 -1334 -41 -60 -134 -162 -169
-185 -18 -11 -33 -23 -33 -26 0 -3 18 -6 39 -7 101 -6 214 -80 260 -170 23
-46 49 -141 45 -166 -5 -37 22 3 75 110 42 87 58 109 75 110 65 1 361 15 421
19 124 8 697 11 800 3 107 -8 185 -16 225 -24 14 -3 63 -12 110 -20 47 -9 105
-20 130 -25 25 -6 59 -12 75 -14 17 -2 113 -18 215 -35 102 -18 199 -34 215
-37 17 -2 41 -6 55 -9 31 -5 94 -15 140 -21 19 -2 60 -8 90 -14 30 -5 78 -12
105 -15 28 -3 57 -8 65 -10 8 -2 40 -6 70 -10 30 -3 66 -7 80 -10 14 -2 63 -9
110 -15 47 -6 99 -12 115 -15 28 -3 96 -12 175 -21 19 -2 53 -6 75 -9 77 -9
120 -14 185 -20 36 -3 83 -8 105 -10 94 -10 154 -16 210 -20 302 -24 473 -34
613 -35 70 -1 104 -5 107 -13 2 -7 6 -48 9 -92 11 -163 52 -344 128 -570 38
-114 109 -297 113 -293 2 2 6 23 9 48 4 25 9 56 11 70 2 14 7 45 10 70 5 37
24 146 41 235 2 10 6 37 10 60 3 22 9 58 14 80 5 22 12 56 15 75 3 19 8 43 11
52 3 9 6 25 8 35 11 53 50 196 68 248 39 112 37 110 131 128 163 30 277 89
385 201 47 49 62 71 57 85 -17 55 -188 118 -503 187 l-23 5 6 177 c2 97 7 276
10 397 3 121 8 303 10 405 3 102 7 277 10 390 7 307 14 582 20 800 5 197 12
476 20 805 9 363 23 910 31 1215 3 124 7 284 9 355 5 183 5 473 1 515 -2 19
-7 67 -10 105 -12 140 -34 301 -56 420 -5 28 -12 66 -15 85 -30 181 -156 636
-209 755 -8 17 -17 41 -21 55 -4 14 -27 68 -50 121 -138 307 -235 473 -407
696 -71 92 -263 296 -328 348 -14 11 -45 36 -70 56 -358 289 -837 461 -1345
484 -71 4 -148 9 -170 11 -54 7 -350 15 -356 10z m261 -521 c567 -88 1011
-430 1319 -1016 137 -261 261 -606 331 -919 11 -52 25 -111 30 -130 7 -30 47
-257 55 -315 18 -134 25 -188 30 -230 3 -27 7 -66 10 -85 4 -34 10 -115 20
-252 3 -38 7 -173 10 -300 6 -276 14 -600 30 -1153 3 -93 7 -258 10 -365 3
-107 7 -271 10 -365 2 -93 7 -258 10 -365 3 -107 7 -280 10 -385 3 -104 8
-266 10 -360 2 -93 7 -262 10 -375 5 -201 8 -294 20 -755 4 -126 8 -275 9
-330 l3 -100 -181 -2 c-100 -2 -228 -4 -286 -5 -58 -2 -154 1 -215 5 -60 4
-139 10 -175 12 -36 2 -105 6 -155 10 -49 3 -128 8 -175 10 -47 3 -125 7 -175
10 -89 5 -170 9 -400 20 -250 11 -325 14 -510 20 -104 3 -242 8 -305 10 -303
11 -1025 23 -1427 24 l-273 1 7 193 c13 362 7 1375 -12 2022 -9 300 -19 594
-30 890 -12 305 -19 473 -40 945 -6 138 -15 314 -20 420 -2 47 -7 144 -11 215
-3 72 -7 153 -10 180 -6 74 -6 218 0 235 2 8 7 42 11 75 7 74 10 97 19 155 4
25 10 59 12 75 59 371 209 784 399 1100 279 462 704 829 1207 1039 147 61 341
123 448 141 19 3 37 9 40 12 6 6 276 -3 330 -12z"/>
</g>
</svg>
