<svg xmlns="http://www.w3.org/2000/svg" width="652" height="1000" viewBox="0 0 652 1000">
  <metadata><?xpacket begin="﻿" id="W5M0MpCehiHzreSzNTczkc9d"?>
<x:xmpmeta xmlns:x="adobe:ns:meta/" x:xmptk="Adobe XMP Core 5.6-c142 79.160924, 2017/07/13-01:06:39        ">
   <rdf:RDF xmlns:rdf="http://www.w3.org/1999/02/22-rdf-syntax-ns#">
      <rdf:Description rdf:about=""/>
   </rdf:RDF>
</x:xmpmeta>
                                                                                                    
                                                                                                    
                                                                                                    
                                                                                                    
                                                                                                    
                                                                                                    
                                                                                                    
                                                                                                    
                                                                                                    
                                                                                                    
                                                                                                    
                                                                                                    
                                                                                                    
                                                                                                    
                                                                                                    
                                                                                                    
                                                                                                    
                                                                                                    
                                                                                                    
                                                                                                    
                           
<?xpacket end="w"?></metadata>
<defs>
    <style>
      .cls-1 {
        fill: #ffffff;
        fill-rule: evenodd;
      }
    </style>
  </defs>
  <path id="Form_1" data-name="Form 1" class="cls-1" d="M550.477,990s11.512-88.163,24.441-110.035c0,0,33.428-1.541,48.881-24.452,0,0,24.816-9.479-48.881-24.453l12.22-489.044S585.465,11.91,318.289,11.91c0,0-198.5-42.093-268.848,281.2,0,0-15.176,149.876,0,220.07,0,0,3.046,242.556,0,305.653,0,0-16.1,23.216-24.441,24.453,28.742,0.257,36.134,21.284,36.661,36.678,0,0,12.857-23.815,12.22-24.452,12.469,0,108-7.311,146.644,0,133.846,25.317,251.5,37.042,305.51,36.678C526.036,892.191,521.97,920.937,550.477,990ZM501.6,843.287L489.375,390.92S495.856,60.815,281.628,60.815c0,0-200.2,22.9-219.967,268.974,0,0,19.985,353.882,12.22,501.271,0,0,198.528-.659,366.611,12.227C469.837,845.536,473.5,839.493,501.6,843.287Z"/>
</svg>
